<svg width="132" height="24" viewBox="0 0 132 24" fill="none" xmlns="http://www.w3.org/2000/svg">
<path d="M11.9137 16.8839L17.8861 20.4886L16.3012 13.6947L21.5778 9.12361L14.6293 8.5341L11.9137 2.12683L9.19809 8.5341L2.24963 9.12361L7.52621 13.6947L5.94131 20.4886L11.9137 16.8839Z" fill="#EDD146"/>
<path d="M38.9731 16.8839L44.9455 20.4886L43.3606 13.6947L48.6371 9.12361L41.6887 8.5341L38.9731 2.12683L36.2575 8.5341L29.309 9.12361L34.5856 13.6947L33.0007 20.4886L38.9731 16.8839Z" fill="#EDD146"/>
<path d="M66.0325 16.8839L72.0049 20.4886L70.42 13.6947L75.6965 9.12361L68.7481 8.5341L66.0325 2.12683L63.3169 8.5341L56.3684 9.12361L61.645 13.6947L60.0601 20.4886L66.0325 16.8839Z" fill="#EDD146"/>
<path d="M93.0919 16.8839L99.0642 20.4886L97.4793 13.6947L102.756 9.12361L95.8075 8.5341L93.0919 2.12683L90.3763 8.5341L83.4278 9.12361L88.7044 13.6947L87.1195 20.4886L93.0919 16.8839Z" fill="#EDD146"/>
<path d="M129.815 9.12361L122.867 8.52444L120.151 2.12683L117.436 8.5341L110.487 9.12361L115.764 13.6947L114.179 20.4886L120.151 16.8839L126.124 20.4886L124.548 13.6947L129.815 9.12361ZM120.151 15.0767L116.517 17.2704L117.484 13.1342L114.275 10.3509L118.508 9.98371L120.151 6.0891L121.804 9.99338L126.037 10.3606L122.828 13.1439L123.795 17.2801L120.151 15.0767Z" fill="#EDD146"/>
</svg>
