<svg width="132" height="24" viewBox="0 0 132 24" fill="none" xmlns="http://www.w3.org/2000/svg">
<path d="M11.9814 16.8839L17.9538 20.4886L16.3689 13.6947L21.6455 9.12361L14.697 8.5341L11.9814 2.12683L9.26584 8.5341L2.31738 9.12361L7.59396 13.6947L6.00905 20.4886L11.9814 16.8839Z" fill="#EDD146"/>
<path d="M39.0409 16.8839L45.0133 20.4886L43.4284 13.6947L48.705 9.12361L41.7565 8.5341L39.0409 2.12683L36.3253 8.5341L29.3768 9.12361L34.6534 13.6947L33.0685 20.4886L39.0409 16.8839Z" fill="#EDD146"/>
<path d="M66.1002 16.8839L72.0726 20.4886L70.4877 13.6947L75.7643 9.12361L68.8158 8.5341L66.1002 2.12683L63.3846 8.5341L56.4362 9.12361L61.7127 13.6947L60.1278 20.4886L66.1002 16.8839Z" fill="#EDD146"/>
<path d="M102.824 9.12361L95.8753 8.52444L93.1597 2.12683L90.4441 8.5341L83.4956 9.12361L88.7722 13.6947L87.1873 20.4886L93.1597 16.8839L99.1321 20.4886L97.5568 13.6947L102.824 9.12361ZM93.1597 15.0767V6.0891L94.8122 9.99338L99.0451 10.3606L95.8366 13.1439L96.803 17.2801L93.1597 15.0767Z" fill="#EDD146"/>
<path d="M129.883 9.12361L122.935 8.52444L120.219 2.12683L117.503 8.5341L110.555 9.12361L115.832 13.6947L114.247 20.4886L120.219 16.8839L126.191 20.4886L124.616 13.6947L129.883 9.12361ZM120.219 15.0767L116.585 17.2704L117.552 13.1342L114.343 10.3509L118.576 9.98371L120.219 6.0891L121.872 9.99338L126.104 10.3606L122.896 13.1439L123.862 17.2801L120.219 15.0767Z" fill="#EDD146"/>
</svg>
